<svg width="43" height="40" viewBox="0 0 43 40" fill="none" xmlns="http://www.w3.org/2000/svg">
<path d="M40.6211 32.3797C38.5986 31.4852 36.2276 32.3966 35.3268 34.3966C35.2928 34.4726 35.2673 34.5485 35.2418 34.6329H4.83544L21.7553 5.51899L34.4005 27.1392L36.8055 25.7553L21.7468 0L0 37.4008H35.2418C35.6072 38.3713 36.3381 39.1983 37.3663 39.654C37.8932 39.8903 38.4456 40 38.9895 40C40.5277 40 41.9893 39.1224 42.6522 37.6371C43.553 35.6371 42.6437 33.2743 40.6211 32.3797ZM40.7401 36.7933C40.3067 37.7553 39.168 38.1857 38.2162 37.7637C37.2474 37.3333 36.814 36.2025 37.2389 35.2574C37.5618 34.5485 38.2587 34.1266 38.9895 34.1266C39.2529 34.1266 39.5164 34.1772 39.7628 34.2869C40.7401 34.7089 41.1735 35.8397 40.7401 36.7933Z" fill="#0077C8"/>
<path d="M21.1179 31.9578H19.0698V30.7257C18.5175 31.7215 17.3787 32.2194 16.172 32.2194C13.4101 32.2194 11.7954 30.0844 11.7954 27.6709C11.7954 24.9789 13.7585 23.1392 16.172 23.1392C17.7441 23.1392 18.6959 23.9662 19.0698 24.6498V23.4008H21.1179V31.9578ZM13.8435 27.7215C13.8435 28.7764 14.6083 30.3207 16.4609 30.3207C17.6082 30.3207 18.356 29.73 18.7469 28.9451C18.9509 28.5654 19.0443 28.1688 19.0698 27.7468C19.0868 27.3418 19.0104 26.9198 18.8319 26.5485C18.4665 25.7384 17.6761 25.038 16.4269 25.038C14.7613 25.038 13.8265 26.3713 13.8265 27.7046L13.8435 27.7215ZM25.367 27.4599L22.4691 23.4177H24.9421L26.6247 26.0422L28.3073 23.4177H30.7548L27.8739 27.4599L31.0862 31.9662H28.5623L26.6332 29.0211L24.6871 31.9662H22.1972L25.367 27.4599Z" fill="#0077C8"/>
</svg>
