<svg width="40" height="40" viewBox="0 0 40 40" fill="none" xmlns="http://www.w3.org/2000/svg">
<path d="M20.0465 40C31.0665 40 40 31.0665 40 20.0464C40 9.02641 31.0665 0.0929007 20.0465 0.0929007C9.02641 0.0929007 0.0929031 9.02641 0.0929031 20.0464C0.0929031 31.0665 9.02641 40 20.0465 40Z" fill="#F4B960"/>
<path d="M18.023 36.0461C27.9769 36.0461 36.0461 27.9769 36.0461 18.023C36.0461 8.06919 27.9769 0 18.023 0C8.06919 0 0 8.06919 0 18.023C0 27.9769 8.06919 36.0461 18.023 36.0461Z" fill="#E66F32"/>
<path d="M20.5054 31.3564C29.1386 31.3564 36.1371 24.3578 36.1371 15.7246C36.1371 7.09147 29.1386 0.0929007 20.5054 0.0929007C11.8722 0.0929007 4.87365 7.09147 4.87365 15.7246C4.87365 24.3578 11.8722 31.3564 20.5054 31.3564Z" fill="#E43C41"/>
<path d="M21.7001 31.2635C29.6221 31.2635 36.0442 24.8414 36.0442 16.9194C36.0442 8.99733 29.6221 2.57525 21.7001 2.57525C13.7781 2.57525 7.356 8.99733 7.356 16.9194C7.356 24.8414 13.7781 31.2635 21.7001 31.2635Z" fill="#BDD041"/>
<path d="M20.6893 31.3564C28.0531 31.3564 34.0227 25.3868 34.0227 18.023C34.0227 10.6592 28.0531 4.68971 20.6893 4.68971C13.3255 4.68971 7.356 10.6592 7.356 18.023C7.356 25.3868 13.3255 31.3564 20.6893 31.3564Z" fill="#6DB54C"/>
<path d="M18.5749 26.9417C24.7196 26.9417 29.7009 21.9604 29.7009 15.8157C29.7009 9.67098 24.7196 4.68971 18.5749 4.68971C12.4302 4.68971 7.4489 9.67098 7.4489 15.8157C7.4489 21.9604 12.4302 26.9417 18.5749 26.9417Z" fill="#AEDAE6"/>
<path d="M20.3214 23.3556C25.5015 23.3556 29.7009 19.1563 29.7009 13.9762C29.7009 8.79611 25.5015 4.5968 20.3214 4.5968C15.1413 4.5968 10.942 8.79611 10.942 13.9762C10.942 19.1563 15.1413 23.3556 20.3214 23.3556Z" fill="#56B8DE"/>
<path d="M21.5162 23.4485C26.0364 23.4485 29.7009 19.7841 29.7009 15.2638C29.7009 10.7436 26.0364 7.07915 21.5162 7.07915C16.9959 7.07915 13.3315 10.7436 13.3315 15.2638C13.3315 19.7841 16.9959 23.4485 21.5162 23.4485Z" fill="#00B1D5"/>
<path d="M20.3214 23.3556C24.1809 23.3556 27.3096 20.2269 27.3096 16.3675C27.3096 12.5081 24.1809 9.37941 20.3214 9.37941C16.462 9.37941 13.3333 12.5081 13.3333 16.3675C13.3333 20.2269 16.462 23.3556 20.3214 23.3556Z" fill="url(#paint0_radial_333_213)"/>
<path d="M20.3214 23.3556C24.1809 23.3556 27.3096 20.2269 27.3096 16.3675C27.3096 12.5081 24.1809 9.37941 20.3214 9.37941C16.462 9.37941 13.3333 12.5081 13.3333 16.3675C13.3333 20.2269 16.462 23.3556 20.3214 23.3556Z" fill="#221F1F"/>
<path d="M24.3781 14.4059C24.8771 13.2937 24.7186 12.1393 24.0239 11.8276C23.3292 11.5159 22.3614 12.1649 21.8624 13.2771C21.3633 14.3894 21.5219 15.5437 22.2166 15.8554C22.9113 16.1671 23.879 15.5182 24.3781 14.4059Z" fill="white"/>
<defs>
<radialGradient id="paint0_radial_333_213" cx="0" cy="0" r="1" gradientUnits="userSpaceOnUse" gradientTransform="translate(20.0318 20.2642) scale(20.1613)">
<stop stop-color="#797979"/>
<stop offset="1" stop-color="#4C4C4C"/>
</radialGradient>
</defs>
</svg>
