<svg width="42" height="40" viewBox="0 0 42 40" fill="none" xmlns="http://www.w3.org/2000/svg">
<path d="M1.52288 30.5359C1.0885 31.238 0.600649 32.0528 0.186313 32.7019C0.00803718 33.0005 -0.0449302 33.3565 0.0387954 33.6934C0.122521 34.0303 0.336256 34.3212 0.634063 34.5035L9.32175 39.8025C9.47271 39.8948 9.64073 39.9565 9.81599 39.9839C9.99125 40.0112 10.1703 40.0037 10.3426 39.9618C10.5149 39.9199 10.677 39.8444 10.8196 39.7397C10.9621 39.635 11.0822 39.5032 11.1729 39.3521C11.5204 38.7758 11.9681 38.0273 12.456 37.2259C15.8977 31.5957 19.3594 32.2846 25.6011 35.2387L34.2153 39.2991C34.3768 39.3752 34.552 39.4185 34.7307 39.4264C34.9094 39.4342 35.0878 39.4064 35.2554 39.3446C35.4231 39.2829 35.5765 39.1884 35.7066 39.0668C35.8367 38.9452 35.9409 38.7989 36.013 38.6367L40.1497 29.3635C40.2901 29.0452 40.2988 28.6849 40.1738 28.3603C40.0488 28.0357 39.8001 27.7727 39.4814 27.6281C37.6636 26.7803 34.0482 25.0913 30.7937 23.5347C19.0854 17.898 9.13463 18.2623 1.52288 30.5359Z" fill="url(#paint0_linear_110_538)"/>
<path d="M40.4771 9.49251C40.9115 8.7904 41.3993 7.97569 41.8137 7.32657C41.992 7.02797 42.0449 6.67197 41.9612 6.33507C41.8775 5.99818 41.6637 5.70729 41.3659 5.52493L32.6782 0.225983C32.5262 0.124449 32.3546 0.0550221 32.1743 0.0220206C31.994 -0.0109809 31.8087 -0.00685064 31.6301 0.0341543C31.4514 0.0751592 31.2832 0.152162 31.1359 0.260371C30.9885 0.36858 30.8652 0.505681 30.7736 0.663145C30.4261 1.23941 29.9784 1.98788 29.4905 2.78935C26.0489 8.41947 22.5872 7.73061 16.3454 4.77645L7.75796 0.736006C7.59648 0.659826 7.42122 0.616541 7.24255 0.608715C7.06388 0.60089 6.88545 0.628682 6.71782 0.690448C6.55019 0.752213 6.39677 0.846694 6.26664 0.968295C6.13652 1.0899 6.03234 1.23614 5.96028 1.39837L1.82361 10.6715C1.68313 10.9899 1.67446 11.3502 1.79946 11.6748C1.92447 11.9994 2.17314 12.2623 2.49189 12.4069C4.30962 13.2548 7.92503 14.9438 11.1796 16.5004C22.9146 22.1305 32.8654 21.7529 40.4771 9.49251Z" fill="url(#paint1_linear_110_538)"/>
<defs>
<linearGradient id="paint0_linear_110_538" x1="41.6392" y1="45.0832" x2="8.21513" y2="34.9902" gradientUnits="userSpaceOnUse">
<stop offset="0.18" stop-color="#0052CC"/>
<stop offset="1" stop-color="#2684FF"/>
</linearGradient>
<linearGradient id="paint1_linear_110_538" x1="2.0843" y1="-2.51622" x2="28.258" y2="12.661" gradientUnits="userSpaceOnUse">
<stop offset="0.18" stop-color="#0052CC"/>
<stop offset="1" stop-color="#2684FF"/>
</linearGradient>
</defs>
</svg>
