<svg width="36" height="40" viewBox="0 0 36 40" fill="none" xmlns="http://www.w3.org/2000/svg">
<path d="M35.5 0L32.3114 35.9958L17.9786 40L3.68521 36.0015L0.5 0H35.5Z" fill="#264DE4"/>
<path d="M29.5816 33.7037L32.3065 2.94365H18V36.9394L29.5816 33.7037Z" fill="#2965F1"/>
<path d="M7.80203 16.2961L8.19474 20.7115H18V16.2961H7.80203Z" fill="#EBEBEB"/>
<path d="M18 7.35913H17.9848H7.01294L7.41125 11.7746H18V7.35913Z" fill="#EBEBEB"/>
<path d="M18 32.3573V27.7634L17.9808 27.7686L13.1009 26.4408L12.789 22.9192H8.39052L9.00438 29.8521L17.9798 32.363L18 32.3573Z" fill="#EBEBEB"/>
<path d="M23.3803 20.7115L22.8717 26.4379L17.9848 27.7671V32.3608L26.9674 29.8521L28.063 17.4817L28.1699 16.2961L28.9609 7.35913H17.9848V11.7746H24.159L23.7603 16.2961H17.9848V20.7115H23.3803Z" fill="white"/>
</svg>
