<svg width="40" height="40" viewBox="0 0 40 40" fill="none" xmlns="http://www.w3.org/2000/svg">
<path d="M14.0575 15.8735C15.6741 15.8735 16.9877 16.738 17.6613 18.2393L17.7118 18.3574L20.4231 17.4338L20.3684 17.2947C19.3201 14.7306 16.8993 13.1407 14.0575 13.1407C12.0577 13.1407 10.4326 13.7818 9.08957 15.1017C7.75497 16.4133 7.08136 18.0622 7.08136 20.0021C7.08136 21.9294 7.75918 23.5698 9.08957 24.8772C10.4326 26.1972 12.0577 26.8382 14.0575 26.8382C16.8993 26.8382 19.3159 25.2441 20.3684 22.6842L20.4231 22.5451L17.7076 21.6215L17.6613 21.7438C17.055 23.224 15.7078 24.1054 14.0575 24.1054C12.9334 24.1054 11.9819 23.7132 11.2325 22.9373C10.4705 22.1529 10.0874 21.1618 10.0874 20.0021C10.0874 18.8339 10.4621 17.864 11.2325 17.0416C11.9861 16.2657 12.9334 15.8735 14.0575 15.8735Z" fill="#1B1E2E"/>
<path d="M25.8289 39.1355L25.0205 36.466C32.3124 34.2478 37.2129 27.631 37.2129 20.0021C37.2129 17.8977 36.8382 15.8397 36.0973 13.8914L38.6991 12.9004C39.5622 15.1692 40 17.5561 40 20.0063C39.9958 28.8666 34.3038 36.5546 25.8289 39.1355Z" fill="url(#paint0_linear_333_148)"/>
<path d="M36.4593 14.9584C34.2322 7.67949 27.6181 2.79178 19.9979 2.79178C18.9622 2.79178 17.9265 2.88455 16.9161 3.06589L16.4235 0.320506C17.5939 0.109647 18.798 0 19.9979 0C28.8475 0 36.5309 5.68055 39.1201 14.136L36.4593 14.9584Z" fill="#69D3A7"/>
<path d="M1.27987 27.0532C0.429429 24.8013 0 22.427 0 20.0021C0 9.67001 7.74234 1.11334 18.0107 0.101212L18.2844 2.87612C9.44743 3.74908 2.78286 11.1123 2.78286 20.0021C2.78286 22.0896 3.15335 24.135 3.8817 26.0706L1.27987 27.0532Z" fill="url(#paint1_linear_333_148)"/>
<path d="M31.0367 13.3938L27.1761 23.1945L23.286 13.3938H20.1031L25.5594 26.7707L21.5851 36.428L24.368 36.9847L34.0427 13.3938H31.0367Z" fill="#1B1E2E"/>
<path d="M22.0861 35.2135L21.5009 36.6347C21.3662 36.9594 21.0588 37.1829 20.7136 37.1956C20.4736 37.204 20.2379 37.2124 19.9937 37.2124C12.3524 37.2124 5.54889 32.0886 3.44806 24.7507L0.770445 25.5182C3.21229 34.0411 11.1146 39.9958 19.9895 40H19.9937C20.2716 40 20.5494 39.9958 20.8273 39.9831C22.2545 39.9241 23.5302 39.0258 24.0775 37.6974L24.869 35.7702L22.0861 35.2135Z" fill="url(#paint2_linear_333_148)"/>
<defs>
<linearGradient id="paint0_linear_333_148" x1="44.0912" y1="11.0209" x2="14.432" y2="44.5967" gradientUnits="userSpaceOnUse">
<stop offset="0.0814251" stop-color="#69D3A7"/>
<stop offset="1" stop-color="#69D3A7" stop-opacity="0"/>
</linearGradient>
<linearGradient id="paint1_linear_333_148" x1="29.1857" y1="0.225091" x2="16.6235" y2="39.4319" gradientUnits="userSpaceOnUse">
<stop stop-color="#69D3A7"/>
<stop offset="0.8232" stop-color="#2AB586"/>
<stop offset="1" stop-color="#1CAE7F"/>
</linearGradient>
<linearGradient id="paint2_linear_333_148" x1="-0.0282728" y1="29.1596" x2="29.395" y2="38.3782" gradientUnits="userSpaceOnUse">
<stop offset="0.0773521" stop-color="#1CAE7F"/>
<stop offset="0.1638" stop-color="#1CA379"/>
<stop offset="0.3161" stop-color="#1C8568"/>
<stop offset="0.5165" stop-color="#1B554D"/>
<stop offset="0.7187" stop-color="#1B1E2E"/>
</linearGradient>
</defs>
</svg>
