<svg width="28" height="40" viewBox="0 0 28 40" fill="none" xmlns="http://www.w3.org/2000/svg">
<path d="M0.5 33.3333C0.5 29.6515 3.52211 26.6667 7.25 26.6667H14V33.3333C14 37.0152 10.9779 40 7.25 40C3.52211 40 0.5 37.0152 0.5 33.3333Z" fill="#24CB71"/>
<path d="M14 0V13.3333H20.75C24.4779 13.3333 27.5 10.3485 27.5 6.66667C27.5 2.9848 24.4779 0 20.75 0H14Z" fill="#FF7237"/>
<path d="M20.6938 26.6667C24.4217 26.6667 27.4438 23.6819 27.4438 20C27.4438 16.3181 24.4217 13.3333 20.6938 13.3333C16.9658 13.3333 13.9438 16.3181 13.9438 20C13.9438 23.6819 16.9658 26.6667 20.6938 26.6667Z" fill="#00B6FF"/>
<path d="M0.5 6.66667C0.5 10.3485 3.52211 13.3333 7.25 13.3333H14V0H7.25C3.52211 0 0.5 2.9848 0.5 6.66667Z" fill="#FF3737"/>
<path d="M0.5 20C0.5 23.6819 3.52211 26.6667 7.25 26.6667H14V13.3333H7.25C3.52211 13.3333 0.5 16.3181 0.5 20Z" fill="#874FFF"/>
</svg>
