<svg width="42" height="40" viewBox="0 0 42 40" fill="none" xmlns="http://www.w3.org/2000/svg">
<path fill-rule="evenodd" clip-rule="evenodd" d="M21.017 0C9.67161 0 0.5 9.16663 0.5 20.507C0.5 29.572 6.37657 37.2453 14.5289 39.9611C15.5482 40.1653 15.9215 39.5198 15.9215 38.9769C15.9215 38.5015 15.8879 36.8719 15.8879 35.174C10.1806 36.3965 8.99211 32.7295 8.99211 32.7295C8.07491 30.3528 6.7159 29.742 6.7159 29.742C4.8479 28.4857 6.85197 28.4857 6.85197 28.4857C8.92408 28.6215 10.0114 30.5907 10.0114 30.5907C11.8454 33.714 14.8006 32.8315 15.9896 32.2882C16.1592 30.964 16.7031 30.0474 17.2805 29.5382C12.7285 29.0628 7.93926 27.2974 7.93926 19.4203C7.93926 17.1795 8.75399 15.3462 10.045 13.9204C9.84128 13.4112 9.12776 11.3058 10.2491 8.48788C10.2491 8.48788 11.9814 7.94455 15.8875 10.5929C17.5598 10.144 19.2845 9.91563 21.017 9.91371C22.7493 9.91371 24.5153 10.1516 26.146 10.5929C30.0525 7.94455 31.7849 8.48788 31.7849 8.48788C32.9062 11.3058 32.1922 13.4112 31.9885 13.9204C33.3135 15.3462 34.0947 17.1795 34.0947 19.4203C34.0947 27.2974 29.3054 29.0286 24.7194 29.5382C25.4669 30.1832 26.112 31.4053 26.112 33.3407C26.112 36.0907 26.0784 38.2978 26.0784 38.9765C26.0784 39.5198 26.4521 40.1652 27.471 39.9615C35.6233 37.2448 41.4999 29.572 41.4999 20.507C41.5335 9.16663 32.3283 0 21.017 0Z" fill="#24292F"/>
</svg>
