<svg width="40" height="40" viewBox="0 0 40 40" fill="none" xmlns="http://www.w3.org/2000/svg">
<path d="M40 0H0V40H40V0Z" fill="#F7DF1E"/>
<path d="M26.8698 31.2502C27.6756 32.5657 28.7238 33.5327 30.5778 33.5327C32.1352 33.5327 33.1302 32.7543 33.1302 31.6787C33.1302 30.3898 32.1079 29.9333 30.3937 29.1835L29.454 28.7803C26.7416 27.6248 24.9397 26.1771 24.9397 23.1168C24.9397 20.2978 27.0876 18.1517 30.4444 18.1517C32.8343 18.1517 34.5524 18.9835 35.7905 21.1613L32.8635 23.0406C32.219 21.8851 31.5238 21.4298 30.4444 21.4298C29.3435 21.4298 28.6457 22.1283 28.6457 23.0406C28.6457 24.1683 29.3441 24.6248 30.9568 25.3232L31.8965 25.7257C35.0902 27.0952 36.8933 28.4914 36.8933 31.6305C36.8933 35.0146 34.2349 36.8686 30.6648 36.8686C27.174 36.8686 24.9187 35.2051 23.8152 33.0248L26.8698 31.2502ZM13.5917 31.5759C14.1822 32.6235 14.7194 33.5092 16.0108 33.5092C17.2457 33.5092 18.0248 33.026 18.0248 31.1473V18.3664H21.7835V31.1981C21.7835 35.0902 19.5016 36.8616 16.1708 36.8616C13.1613 36.8616 11.4184 35.3041 10.5321 33.4283L13.5917 31.5759Z" fill="black"/>
</svg>
