<svg width="42" height="40" viewBox="0 0 42 40" fill="none" xmlns="http://www.w3.org/2000/svg">
<path d="M39.7869 0H20.0292C20.0292 4.79111 24.0264 8.69085 28.9373 8.69085H32.5918V12.0892C32.5918 16.8802 36.5891 20.7801 41.5 20.7801V1.67132C41.5 0.724243 40.7577 0 39.7869 0Z" fill="#2684FF"/>
<path d="M30.0223 9.58207H10.2646C10.2646 14.3732 14.2618 18.2729 19.1727 18.2729H22.8273V21.727C22.8273 26.518 26.8246 30.4179 31.7355 30.4179V11.2533C31.7355 10.362 30.993 9.58207 30.0223 9.58207Z" fill="url(#paint0_linear_110_520)"/>
<path d="M20.2578 19.2201H0.5C0.5 24.0111 4.49723 27.9108 9.40812 27.9108H13.0627V31.3092C13.0627 36.1003 17.0599 40 21.9708 40V20.8913C21.9708 19.9442 21.1715 19.2201 20.2578 19.2201Z" fill="url(#paint1_linear_110_520)"/>
<defs>
<linearGradient id="paint0_linear_110_520" x1="40.6973" y1="0.0923014" x2="24.9764" y2="16.6213" gradientUnits="userSpaceOnUse">
<stop offset="0.176" stop-color="#0052CC"/>
<stop offset="1" stop-color="#2684FF"/>
</linearGradient>
<linearGradient id="paint1_linear_110_520" x1="22.0996" y1="19.284" x2="12.6205" y2="28.7376" gradientUnits="userSpaceOnUse">
<stop offset="0.176" stop-color="#0052CC"/>
<stop offset="1" stop-color="#2684FF"/>
</linearGradient>
</defs>
</svg>
