<svg width="40" height="40" viewBox="0 0 40 40" fill="none" xmlns="http://www.w3.org/2000/svg">
<path d="M0 10.0004C0 4.48186 4.4803 0 9.99883 0H29.9996C35.5197 0 40 4.4803 40 10.0004V29.9996C40 35.5197 35.5197 40 29.9996 40H9.99883C4.4803 40.0016 0 35.5197 0 30.0012V10.0004Z" fill="#FFDD33"/>
<path fill-rule="evenodd" clip-rule="evenodd" d="M26.5903 7.63085H22.9627L25.9901 12.9467L19.3336 7.63085H15.706L19.0343 14.1237L12.0784 7.63085H8.45084L12.0784 15.9024L8.45084 32.444H12.0784L19.0343 14.7254L15.706 32.444H19.3336L25.9901 13.5391L22.9627 32.444H26.5903L33.2468 11.7697L26.5903 7.63865V7.63085Z" fill="#1C1C1E"/>
</svg>
