<svg width="36" height="40" viewBox="0 0 36 40" fill="none" xmlns="http://www.w3.org/2000/svg">
<path d="M14.4758 0.930882L14.2736 1.05444C13.9519 1.25099 13.6489 1.47076 13.3661 1.71089L13.9494 1.29644H18.9L19.8 8.18038L15.3 12.726L10.8 15.8856V19.5289C10.8 22.0736 12.1166 24.4332 14.2717 25.7509L19.009 28.6475L9 34.5453H7.06959L3.47163 32.3454C1.31657 31.0277 0 28.6681 0 26.1234V13.8721C0 11.3266 1.31741 8.96632 3.47357 7.64891L14.2736 1.04997C14.3405 1.00908 14.4079 0.969383 14.4758 0.930882Z" fill="url(#paint0_radial_110_741)"/>
<path d="M14.4758 0.930882L14.2736 1.05444C13.9519 1.25099 13.6489 1.47076 13.3661 1.71089L13.9494 1.29644H18.9L19.8 8.18038L15.3 12.726L10.8 15.8856V19.5289C10.8 22.0736 12.1166 24.4332 14.2717 25.7509L19.009 28.6475L9 34.5453H7.06959L3.47163 32.3454C1.31657 31.0277 0 28.6681 0 26.1234V13.8721C0 11.3266 1.31741 8.96632 3.47357 7.64891L14.2736 1.04997C14.3405 1.00908 14.4079 0.969383 14.4758 0.930882Z" fill="url(#paint1_linear_110_741)"/>
<path d="M25.2 15.4534V19.5266C25.2 22.0712 23.8834 24.4309 21.7283 25.7486L10.9283 32.3521C8.71902 33.703 5.97015 33.7517 3.72195 32.4984L14.2716 38.9489C16.5635 40.3504 19.4363 40.3504 21.7283 38.9489L32.5283 32.3453C34.6834 31.0276 35.9999 28.668 35.9999 26.1233V23.181L35.0999 21.8173L25.2 15.4534Z" fill="url(#paint2_radial_110_741)"/>
<path d="M25.2 15.4534V19.5266C25.2 22.0712 23.8834 24.4309 21.7283 25.7486L10.9283 32.3521C8.71902 33.703 5.97015 33.7517 3.72195 32.4984L14.2716 38.9489C16.5635 40.3504 19.4363 40.3504 21.7283 38.9489L32.5283 32.3453C34.6834 31.0276 35.9999 28.668 35.9999 26.1233V23.181L35.0999 21.8173L25.2 15.4534Z" fill="url(#paint3_linear_110_741)"/>
<path d="M32.5264 7.64882L21.7264 1.04989C19.5064 -0.306597 16.7419 -0.348617 14.4881 0.923818L14.2736 1.05444C12.1174 2.37188 10.8 4.73257 10.8 7.27807V15.9002L14.2736 13.7777C16.5646 12.3779 19.4354 12.3779 21.7264 13.7777L32.5264 20.3766C34.6152 21.6529 35.9168 23.9078 35.9961 26.3616C35.9987 26.2823 35.9999 26.2029 35.9999 26.1233L36 13.872C36 11.3265 34.6826 8.96623 32.5264 7.64882Z" fill="url(#paint4_radial_110_741)"/>
<path d="M32.5264 7.64882L21.7264 1.04989C19.5064 -0.306597 16.7419 -0.348617 14.4881 0.923818L14.2736 1.05444C12.1174 2.37188 10.8 4.73257 10.8 7.27807V15.9002L14.2736 13.7777C16.5646 12.3779 19.4354 12.3779 21.7264 13.7777L32.5264 20.3766C34.6152 21.6529 35.9168 23.9078 35.9961 26.3616C35.9987 26.2823 35.9999 26.2029 35.9999 26.1233L36 13.872C36 11.3265 34.6826 8.96623 32.5264 7.64882Z" fill="url(#paint5_linear_110_741)"/>
<defs>
<radialGradient id="paint0_radial_110_741" cx="0" cy="0" r="1" gradientUnits="userSpaceOnUse" gradientTransform="translate(21.9577 8.23536) rotate(119.526) scale(38.8493 88.4818)">
<stop offset="0.06441" stop-color="#AE7FE2"/>
<stop offset="1" stop-color="#0078D4"/>
</radialGradient>
<linearGradient id="paint1_linear_110_741" x1="22.1104" y1="37.6939" x2="18.1465" y2="27.3237" gradientUnits="userSpaceOnUse">
<stop stop-color="#114A8B"/>
<stop offset="1" stop-color="#0078D4" stop-opacity="0"/>
</linearGradient>
<radialGradient id="paint2_radial_110_741" cx="0" cy="0" r="1" gradientUnits="userSpaceOnUse" gradientTransform="translate(2.30307 25.7052) rotate(-12.2476) scale(31.5541 30.0141)">
<stop offset="0.133928" stop-color="#D59DFF"/>
<stop offset="1" stop-color="#5E438F"/>
</radialGradient>
<linearGradient id="paint3_linear_110_741" x1="32.3429" y1="9.44707" x2="24.2926" y2="17.2683" gradientUnits="userSpaceOnUse">
<stop stop-color="#493474"/>
<stop offset="1" stop-color="#8C66BA" stop-opacity="0"/>
</linearGradient>
<radialGradient id="paint4_radial_110_741" cx="0" cy="0" r="1" gradientUnits="userSpaceOnUse" gradientTransform="translate(32.2138 33.7999) rotate(-164.781) scale(32.1896 57.6137)">
<stop offset="0.0584996" stop-color="#50E6FF"/>
<stop offset="1" stop-color="#436DCD"/>
</radialGradient>
<linearGradient id="paint5_linear_110_741" x1="11.6782" y1="0.958764" x2="18.4381" y2="0.958764" gradientUnits="userSpaceOnUse">
<stop stop-color="#2D3F80"/>
<stop offset="1" stop-color="#436DCD" stop-opacity="0"/>
</linearGradient>
</defs>
</svg>
