<svg width="38" height="40" viewBox="0 0 38 40" fill="none" xmlns="http://www.w3.org/2000/svg">
<path d="M2.38885 1.72564L24.3569 0.0908751C27.0555 -0.14232 27.7486 0.0148767 29.4455 1.25765L36.458 6.23474C37.6145 7.09072 37.9996 7.32392 37.9996 8.2559V35.5525C37.9996 37.2633 37.383 38.2752 35.2245 38.4296L9.71379 39.9864C8.09397 40.0636 7.32257 39.8304 6.47414 38.7412L1.31015 31.9758C0.383915 30.7306 0 29.7986 0 28.709V4.44558C0 3.04681 0.616566 1.88044 2.38885 1.72564Z" fill="white"/>
<path fill-rule="evenodd" clip-rule="evenodd" d="M24.3569 0.0912751L2.38885 1.72564C0.616566 1.88044 0 3.04681 0 4.44558V28.709C0 29.7982 0.383915 30.7302 1.31015 31.9758L6.47414 38.7412C7.32257 39.8304 8.09397 40.064 9.71379 39.9864L35.2249 38.43C37.3818 38.2752 38 37.2633 38 35.5529V8.2563C38 7.37232 37.6534 7.11752 36.6331 6.36314L29.4455 1.25765C27.749 0.0148767 27.0555 -0.14232 24.3569 0.0908751V0.0912751ZM10.2907 7.80951C8.20751 7.9507 7.73507 7.9827 6.55196 7.01352L3.54416 4.60318C3.23846 4.29118 3.39211 3.90199 4.16232 3.82439L25.2808 2.26963C27.0543 2.11363 27.9777 2.73642 28.6713 3.28041L32.2933 5.92435C32.4481 6.00315 32.8332 6.46834 32.3699 6.46834L10.5606 7.79111L10.2907 7.80951ZM7.86211 35.3197V12.147C7.86211 11.135 8.17059 10.6682 9.09405 10.5898L34.1434 9.11228C34.993 9.03508 35.3769 9.57907 35.3769 10.5894V33.6077C35.3769 34.6197 35.2221 35.4757 33.8353 35.5529L9.86466 36.9529C8.47788 37.0301 7.86251 36.5649 7.86251 35.3197H7.86211ZM31.5243 13.3894C31.6779 14.0894 31.5243 14.7894 30.8295 14.8694L29.6742 15.1001V32.209C28.6709 32.753 27.7475 33.0638 26.9757 33.0638C25.7421 33.0638 25.434 32.6746 24.5102 31.509L16.955 19.5333V31.1198L19.345 31.665C19.345 31.665 19.345 33.065 17.4167 33.065L12.1007 33.3757C11.9458 33.0638 12.1007 32.2866 12.6394 32.1318L14.0278 31.7438V16.4241L12.1011 16.2669C11.9462 15.5669 12.3313 14.5562 13.4112 14.4778L19.1151 14.091L26.9761 26.2215V15.4897L24.9723 15.2577C24.8175 14.4006 25.434 13.7778 26.2043 13.7018L31.5243 13.3894Z" fill="black"/>
</svg>
