<svg width="32" height="40" viewBox="0 0 32 40" fill="none" xmlns="http://www.w3.org/2000/svg">
<path d="M25.729 37.139C25.4902 38.967 23.7258 40.3887 21.9768 39.8966C19.4805 39.2013 16.5912 38.1155 13.9948 37.9124L10.0114 37.5999C9.36902 37.5546 8.7656 37.2709 8.31638 36.8031L1.45918 29.6399C1.09135 29.2583 0.845376 28.7733 0.753301 28.248C0.661225 27.7228 0.727317 27.1815 0.942967 26.6949C0.942967 26.6949 5.18056 17.2428 5.34236 16.7506C5.49646 16.2585 6.08201 11.9699 6.42102 9.67329C6.51348 9.05617 6.80626 8.50154 7.26854 8.08752L15.3816 0.682079C15.6491 0.438453 15.9631 0.253096 16.3041 0.137484C16.6452 0.0218716 17.006 -0.021534 17.3642 0.0099543C17.7225 0.0414426 18.0705 0.147155 18.3868 0.320545C18.7031 0.493935 18.981 0.731313 19.2031 1.01798L26.0141 9.79827C26.3929 10.3009 26.5986 10.9156 26.5997 11.5481C26.5997 13.212 26.7384 16.6257 27.6475 18.8285C28.5336 20.9611 30.1516 23.2812 30.9991 24.4139C31.1604 24.6257 31.256 24.8813 31.2738 25.1484C31.2917 25.4154 31.2309 25.6817 31.0992 25.9137C29.9996 27.7843 28.8486 29.6234 27.6475 31.4287C26.4918 33.1707 25.9602 35.3267 25.7213 37.139H25.729Z" fill="#6C31E3"/>
<path d="M9.05604 37.35C12.2458 30.7882 12.1533 26.0856 10.7973 22.7422C9.54914 19.6488 7.23002 17.7037 5.404 16.4929C5.35777 16.6725 5.30384 16.8366 5.2345 17.0006L0.942967 26.7027C0.726345 27.1886 0.658999 27.7294 0.749694 28.2546C0.840389 28.7799 1.08493 29.2653 1.45148 29.6477L8.31638 36.811C8.52937 37.0358 8.77974 37.2209 9.05604 37.3578V37.35Z" fill="url(#paint0_radial_110_747)"/>
<path d="M17.7238 24.0311C18.5868 24.1248 19.4343 24.3123 20.251 24.6248C22.8706 25.6169 25.2591 27.8432 27.2238 32.1474C27.3624 31.9052 27.5011 31.6631 27.6552 31.4287C28.8549 29.6225 30.0059 27.7835 31.1069 25.9137C31.2417 25.6827 31.3042 25.4158 31.2863 25.148C31.2684 24.8803 31.171 24.6243 31.0068 24.4139C30.1593 23.2734 28.5413 20.9611 27.6552 18.8285C26.7461 16.6257 26.6151 13.2042 26.6074 11.5481C26.6074 10.9153 26.4071 10.2982 26.0218 9.79827L19.2031 1.01798C19.1661 0.972424 19.1275 0.928133 19.0876 0.885182C19.5363 2.24731 19.5897 3.71142 19.2417 5.10347C18.9116 6.22745 18.4566 7.30979 17.8856 8.32968L17.3309 9.43894C16.4415 11.1558 15.9314 13.0484 15.8362 14.9852C15.7437 17.2818 16.206 20.1721 17.7238 24.0311Z" fill="url(#paint1_radial_110_747)"/>
<path d="M17.7238 24.0311C16.206 20.1721 15.736 17.2818 15.8362 14.9774C15.9314 13.0406 16.4415 11.148 17.3309 9.43113C17.5081 9.05617 17.7007 8.68902 17.8856 8.32968C18.4327 7.24386 18.9643 6.22054 19.2417 5.09566C19.5897 3.70361 19.5363 2.2395 19.0876 0.87737C18.6202 0.355098 17.9675 0.0420703 17.2728 0.00692549C16.5781 -0.0282193 15.898 0.217388 15.3816 0.689891L7.26084 8.09533C6.8079 8.50912 6.51101 9.06973 6.42102 9.6811L5.43482 16.321L5.39629 16.5007C7.23002 17.7115 9.55684 19.6566 10.7973 22.75C11.0537 23.3765 11.2548 24.0248 11.3983 24.6873C13.5556 24.1561 15.6898 23.828 17.7238 24.0389L17.7238 24.0311Z" fill="url(#paint2_radial_110_747)"/>
<path d="M21.9768 39.9044C23.7258 40.3887 25.4902 38.967 25.729 37.139C25.9278 35.3977 26.4342 33.7069 27.2238 32.1474C25.2514 27.851 22.8706 25.6169 20.2587 24.6248C17.485 23.578 14.4647 23.9217 11.3983 24.6795C12.084 27.8354 11.6756 31.9677 9.05604 37.35C9.36422 37.4906 9.68012 37.5843 10.0191 37.6077C10.0191 37.6077 11.8991 37.764 14.1489 37.928C16.3832 38.0843 19.7271 39.2638 21.9768 39.8966L21.9768 39.9044Z" fill="url(#paint3_radial_110_747)"/>
<path fill-rule="evenodd" clip-rule="evenodd" d="M15.8516 14.829C15.7514 17.11 16.0365 19.7347 17.5543 23.5858L17.0766 23.5468C15.7129 19.5238 15.4201 17.4537 15.5203 15.1414C15.6374 13.1735 16.1736 11.2547 17.0921 9.51705C17.277 9.13428 17.7084 8.41561 17.9011 8.04846C18.4481 6.97827 18.8179 6.40802 19.1338 5.42375C19.573 4.05671 19.4805 3.40053 19.4266 2.75998C19.781 5.09566 18.4481 7.1345 17.4465 9.19678C16.5253 10.9348 15.9816 12.8525 15.8516 14.8212V14.829Z" fill="url(#paint4_radial_110_747)"/>
<path fill-rule="evenodd" clip-rule="evenodd" d="M11.2442 22.9062C11.4291 23.328 11.5986 23.6718 11.7065 24.1951L11.2981 24.2811C11.1363 23.6718 11.0053 23.2343 10.7742 22.7187C9.40275 19.4378 7.2069 17.7505 5.404 16.5085C7.57673 17.6959 9.8111 19.555 11.2365 22.9062H11.2442Z" fill="url(#paint5_radial_110_747)"/>
<path fill-rule="evenodd" clip-rule="evenodd" d="M11.7296 24.6013C12.4846 28.1947 11.6371 32.7411 9.14079 37.1703C11.2288 32.7801 12.2381 28.5697 11.3983 24.6716L11.7296 24.6013Z" fill="url(#paint6_radial_110_747)"/>
<path fill-rule="evenodd" clip-rule="evenodd" d="M20.3512 24.2811C24.4424 25.8356 26.0218 29.2493 27.2006 32.0927C25.7367 29.1165 23.7181 25.82 20.2048 24.5935C17.5235 23.6718 15.266 23.7811 11.3983 24.6716L11.3135 24.2811C15.4124 23.3359 17.5543 23.2265 20.3512 24.2811Z" fill="url(#paint7_radial_110_747)"/>
<defs>
<radialGradient id="paint0_radial_110_747" cx="0" cy="0" r="1" gradientUnits="userSpaceOnUse" gradientTransform="translate(22.9899 38.742) rotate(-110.594) scale(35.9956 32.1875)">
<stop stop-color="white" stop-opacity="0.4"/>
<stop offset="1" stop-opacity="0.1"/>
</radialGradient>
<radialGradient id="paint1_radial_110_747" cx="0" cy="0" r="1" gradientUnits="userSpaceOnUse" gradientTransform="translate(16.8972 36.2519) rotate(-78.63) scale(38.6394 42.5501)">
<stop stop-color="white" stop-opacity="0.6"/>
<stop offset="1" stop-color="white" stop-opacity="0.1"/>
</radialGradient>
<radialGradient id="paint2_radial_110_747" cx="0" cy="0" r="1" gradientUnits="userSpaceOnUse" gradientTransform="translate(10.2536 38.8354) rotate(-74.0354) scale(42.0015 36.7271)">
<stop stop-color="white" stop-opacity="0.8"/>
<stop offset="1" stop-color="white" stop-opacity="0.4"/>
</radialGradient>
<radialGradient id="paint3_radial_110_747" cx="0" cy="0" r="1" gradientUnits="userSpaceOnUse" gradientTransform="translate(22.6785 39.9953) rotate(-111.4) scale(34.1199 30.4719)">
<stop stop-color="white" stop-opacity="0.3"/>
<stop offset="1" stop-opacity="0.3"/>
</radialGradient>
<radialGradient id="paint4_radial_110_747" cx="0" cy="0" r="1" gradientUnits="userSpaceOnUse" gradientTransform="translate(36.4606 13.9085) rotate(130.533) scale(32.7698 52.6969)">
<stop stop-color="white" stop-opacity="0"/>
<stop offset="1" stop-color="white" stop-opacity="0.2"/>
</radialGradient>
<radialGradient id="paint5_radial_110_747" cx="0" cy="0" r="1" gradientUnits="userSpaceOnUse" gradientTransform="translate(-2.09324 3.49749) rotate(47.4033) scale(48.6036 103.167)">
<stop stop-color="white" stop-opacity="0.2"/>
<stop offset="1" stop-color="white" stop-opacity="0.4"/>
</radialGradient>
<radialGradient id="paint6_radial_110_747" cx="0" cy="0" r="1" gradientUnits="userSpaceOnUse" gradientTransform="translate(40.3213 -7.73151) rotate(77.0576) scale(33.1606 223.09)">
<stop stop-color="white" stop-opacity="0.2"/>
<stop offset="1" stop-color="white" stop-opacity="0.3"/>
</radialGradient>
<radialGradient id="paint7_radial_110_747" cx="0" cy="0" r="1" gradientUnits="userSpaceOnUse" gradientTransform="translate(27.0928 31.1709) rotate(-151.963) scale(17.2837 54.7977)">
<stop stop-color="white" stop-opacity="0.2"/>
<stop offset="0.5" stop-color="white" stop-opacity="0.2"/>
<stop offset="1" stop-color="white" stop-opacity="0.3"/>
</radialGradient>
</defs>
</svg>
