<svg width="54" height="40" viewBox="0 0 54 40" fill="none" xmlns="http://www.w3.org/2000/svg">
<path d="M46.1371 22.9944C44.2881 23.0042 42.6812 23.4523 41.3355 24.1148C40.8418 23.1308 40.3481 22.254 40.261 21.611C40.1642 20.8609 40.048 20.403 40.1642 19.5067C40.2804 18.6104 40.8031 17.3342 40.7934 17.2367C40.7837 17.1393 40.6773 16.6814 39.6124 16.6717C38.5475 16.6619 37.6278 16.8763 37.5214 17.1588C37.4149 17.4413 37.2116 18.0843 37.0761 18.7468C36.8921 19.721 34.9463 23.199 33.833 25.0208C33.4748 24.3096 33.1651 23.6861 33.0973 23.1893C33.0005 22.4391 32.8843 21.9812 33.0005 21.0849C33.1167 20.1887 33.6394 18.9124 33.6297 18.815C33.6201 18.7176 33.5136 18.2597 32.4487 18.2499C31.3838 18.2402 30.4642 18.4545 30.3577 18.737C30.2512 19.0196 30.135 19.6821 29.9124 20.325C29.6897 20.968 27.105 26.7745 26.4273 28.2748C26.0788 29.0444 25.7787 29.6582 25.5658 30.0771C25.5658 30.0771 25.5561 30.1063 25.527 30.155C25.3431 30.5155 25.2366 30.7104 25.2366 30.7104C25.2366 30.7104 25.2366 30.7104 25.2366 30.7201C25.0914 30.9831 24.9365 31.2267 24.8591 31.2267C24.801 31.2267 24.6945 30.5252 24.8784 29.5705C25.2657 27.5538 26.1853 24.4168 26.1756 24.3097C26.1756 24.2512 26.3499 23.7056 25.5754 23.4231C24.8203 23.1406 24.5493 23.6082 24.4815 23.6082C24.4138 23.6082 24.3654 23.7738 24.3654 23.7738C24.3654 23.7738 25.2076 20.2471 22.7584 20.2471C21.2288 20.2471 19.1184 21.9325 18.0729 23.4523C17.4146 23.8128 16.0109 24.5824 14.5104 25.4105C13.9393 25.732 13.3488 26.0535 12.797 26.3555C12.7582 26.3166 12.7195 26.2679 12.6808 26.2289C9.71852 23.0431 4.23927 20.7927 4.47161 16.5158C4.55873 14.957 5.09117 10.8653 14.9945 5.89667C23.1456 1.85361 29.6316 2.97398 30.7546 5.45827C32.3616 9.00447 27.2792 15.5903 18.8571 16.545C15.6431 16.9055 13.9586 15.6585 13.5327 15.1908C13.0874 14.7037 13.0196 14.6745 12.8551 14.7719C12.584 14.9181 12.7582 15.3565 12.8551 15.6098C13.1068 16.2722 14.1426 17.4413 15.8948 18.0161C17.4437 18.5227 21.2095 18.8052 25.769 17.0321C30.8708 15.0447 34.8592 9.52081 33.6878 4.89321C32.5165 0.197416 24.7719 -1.35161 17.4437 1.26907C13.0874 2.82784 8.36323 5.28291 4.96532 8.47839C0.928487 12.2779 0.289564 15.5805 0.550941 16.9639C1.48997 21.8741 8.21802 25.0696 10.9092 27.4369C10.7737 27.5149 10.6479 27.5831 10.5414 27.6415C9.19577 28.3137 4.06502 31.0124 2.78717 33.8669C1.33507 37.1013 3.01951 39.42 4.13278 39.7317C7.58878 40.6962 11.1416 38.9621 13.0487 36.0979C14.9558 33.2336 14.7234 29.512 13.8425 27.8071C13.8328 27.7877 13.8231 27.7682 13.8038 27.7487C14.1523 27.5441 14.5104 27.3298 14.859 27.1252C15.5463 26.716 16.2239 26.3361 16.8048 26.0243C16.4756 26.9303 16.2336 28.0117 16.1174 29.5705C15.9722 31.4021 16.7176 33.7792 17.6954 34.7144C18.131 35.1236 18.6441 35.1334 18.9732 35.1334C20.1155 35.1334 20.6286 34.1786 21.1998 33.0485C21.8968 31.6651 22.526 30.0576 22.526 30.0576C22.526 30.0576 21.7419 34.4027 23.8716 34.4027C24.6461 34.4027 25.4302 33.3895 25.7787 32.8731C25.7787 32.8829 25.7787 32.8829 25.7787 32.8829C25.7787 32.8829 25.7981 32.8537 25.8368 32.7855C25.9143 32.6588 25.9627 32.5809 25.9627 32.5809C25.9627 32.5809 25.9627 32.5711 25.9627 32.5614C26.2724 32.0158 26.9694 30.7785 28.0053 28.7229C29.3412 26.073 30.6287 22.7606 30.6287 22.7606C30.6287 22.7606 30.7449 23.5692 31.1418 24.9137C31.3741 25.7028 31.8582 26.5699 32.2454 27.4077C31.9356 27.8461 31.742 28.0897 31.742 28.0897C31.742 28.0897 31.742 28.0897 31.7517 28.0994C31.5 28.4307 31.2289 28.7911 30.9288 29.1418C29.8736 30.4083 28.6152 31.8599 28.4409 32.2789C28.2376 32.7757 28.286 33.1362 28.6732 33.4285C28.954 33.6428 29.4574 33.672 29.9705 33.6428C30.9192 33.5746 31.5871 33.3408 31.9163 33.1946C32.4293 33.0095 33.0295 32.727 33.591 32.3081C34.6268 31.5385 35.2561 30.4376 35.198 28.986C35.169 28.1871 34.9076 27.3882 34.5881 26.6381C34.6849 26.5017 34.7721 26.3653 34.8689 26.2289C36.5049 23.8225 37.7731 21.1824 37.7731 21.1824C37.7731 21.1824 37.8892 21.991 38.2861 23.3354C38.4797 24.0174 38.8767 24.7578 39.2252 25.4787C37.6859 26.7355 36.7372 28.1968 36.3984 29.1516C35.7885 30.9247 36.2629 31.7236 37.1632 31.9087C37.5698 31.9963 38.1506 31.8015 38.5766 31.6164C39.1187 31.441 39.7576 31.139 40.3675 30.6909C41.4033 29.9212 42.4004 28.8496 42.3423 27.398C42.3133 26.7355 42.139 26.0828 41.897 25.4495C43.2039 24.9039 44.8883 24.6019 47.0374 24.8552C51.6454 25.4008 52.5554 28.2943 52.3812 29.512C52.2069 30.7298 51.2389 31.3923 50.9194 31.5969C50.5999 31.8015 50.4934 31.8697 50.5225 32.0158C50.5612 32.2302 50.7161 32.2204 50.9872 32.1814C51.3647 32.1132 53.4073 31.1975 53.4945 28.9567C53.6397 26.0925 50.9291 22.9652 46.1371 22.9944ZM10.5898 35.0554C9.06024 36.7311 6.93049 37.3644 6.01083 36.8285C5.0234 36.2537 5.41063 33.7792 7.28868 32.0061C8.431 30.9247 9.90245 29.9212 10.8802 29.3075C11.1029 29.1711 11.432 28.9762 11.8289 28.7327C11.8967 28.6937 11.9354 28.6742 11.9354 28.6742C12.0128 28.6255 12.0903 28.5768 12.1677 28.5281C12.8551 31.0611 12.1968 33.2921 10.5898 35.0554ZM21.7225 27.4369C21.1901 28.7424 20.0768 32.084 19.3992 31.8989C18.8183 31.743 18.4602 29.21 19.283 26.7063C19.6993 25.4495 20.5802 23.9492 21.0933 23.3646C21.9258 22.4294 22.8455 22.1176 23.0681 22.4976C23.3489 22.9944 22.0517 26.6186 21.7225 27.4369ZM30.9095 31.8599C30.6868 31.9769 30.4738 32.0548 30.377 31.9963C30.3093 31.9574 30.4738 31.8015 30.4738 31.8015C30.4738 31.8015 31.6258 30.5545 32.0808 29.9894C32.3422 29.6582 32.652 29.2685 32.9811 28.8301C32.9811 28.8691 32.9811 28.9178 32.9811 28.9567C32.9811 30.4473 31.5484 31.4508 30.9095 31.8599ZM37.9957 30.233C37.8311 30.1161 37.8602 29.7264 38.412 28.5086C38.625 28.0312 39.1284 27.2323 39.9899 26.4627C40.0867 26.7745 40.1545 27.0765 40.1448 27.359C40.1351 29.2393 38.7992 29.9407 37.9957 30.233Z" fill="#CD6799"/>
</svg>
