<svg width="40" height="40" viewBox="0 0 40 40" fill="none" xmlns="http://www.w3.org/2000/svg">
<path d="M8.43278 25.2866C8.43278 27.6115 6.55529 29.4904 4.2323 29.4904C1.90931 29.4904 0.0318218 27.6115 0.0318218 25.2866C0.0318218 22.9618 1.90931 21.0828 4.2323 21.0828H8.43278V25.2866ZM10.533 25.2866C10.533 22.9618 12.4105 21.0828 14.7335 21.0828C17.0565 21.0828 18.934 22.9618 18.934 25.2866V35.7962C18.934 38.121 17.0565 40 14.7335 40C12.4105 40 10.533 38.121 10.533 35.7962V25.2866Z" fill="#E01E5A"/>
<path d="M14.7335 8.40764C12.4105 8.40764 10.533 6.52866 10.533 4.20382C10.533 1.87898 12.4105 0 14.7335 0C17.0565 0 18.934 1.87898 18.934 4.20382V8.40764H14.7335ZM14.7335 10.5414C17.0565 10.5414 18.934 12.4204 18.934 14.7452C18.934 17.0701 17.0565 18.949 14.7335 18.949H4.20048C1.87749 18.949 0 17.0701 0 14.7452C0 12.4204 1.87749 10.5414 4.20048 10.5414H14.7335Z" fill="#36C5F0"/>
<path d="M31.5672 14.7452C31.5672 12.4204 33.4447 10.5414 35.7677 10.5414C38.0907 10.5414 39.9682 12.4204 39.9682 14.7452C39.9682 17.0701 38.0907 18.949 35.7677 18.949H31.5672V14.7452ZM29.467 14.7452C29.467 17.0701 27.5895 18.949 25.2665 18.949C22.9435 18.949 21.066 17.0701 21.066 14.7452V4.20382C21.066 1.87898 22.9435 0 25.2665 0C27.5895 0 29.467 1.87898 29.467 4.20382V14.7452Z" fill="#2EB67D"/>
<path d="M25.2665 31.5924C27.5895 31.5924 29.467 33.4713 29.467 35.7962C29.467 38.121 27.5895 40 25.2665 40C22.9435 40 21.066 38.121 21.066 35.7962V31.5924H25.2665ZM25.2665 29.4904C22.9435 29.4904 21.066 27.6115 21.066 25.2866C21.066 22.9618 22.9435 21.0828 25.2665 21.0828H35.7995C38.1225 21.0828 40 22.9618 40 25.2866C40 27.6115 38.1225 29.4904 35.7995 29.4904H25.2665Z" fill="#ECB22E"/>
</svg>
