<svg width="40" height="40" viewBox="0 0 40 40" fill="none" xmlns="http://www.w3.org/2000/svg">
<path fill-rule="evenodd" clip-rule="evenodd" d="M19.9999 40C31.0457 40 40 31.0457 40 19.9999C40 8.95427 31.0457 0 19.9999 0C8.95427 0 0 8.95427 0 19.9999C0 31.0457 8.95427 40 19.9999 40Z" fill="#FF5036"/>
<path fill-rule="evenodd" clip-rule="evenodd" d="M19.9918 18.6372C19.9918 18.6372 19.7343 18.2117 19.172 17.4815C18.6097 16.7512 17.7427 15.7162 16.5234 14.4969C15.1705 13.1441 13.3981 12.4666 11.6251 12.4645C9.852 12.4626 8.07824 13.1358 6.72277 14.4846C5.40067 15.8001 4.73346 17.5279 4.71144 19.271C4.68925 21.014 5.31208 22.7724 6.57006 24.1492C10.1746 28.0938 15.0831 30.0662 19.9918 30.0662C24.9006 30.0662 29.8091 28.0938 33.4135 24.1492C34.6714 22.7724 35.2944 21.014 35.2722 19.271C35.2502 17.5279 34.583 15.8002 33.2609 14.4846C31.9054 13.1358 30.1317 12.4626 28.3586 12.4645C26.5856 12.4666 24.813 13.1441 23.4603 14.4969C22.241 15.7162 21.3738 16.7512 20.8115 17.4815C20.2492 18.2117 19.9918 18.6372 19.9918 18.6372Z" fill="white"/>
<path fill-rule="evenodd" clip-rule="evenodd" d="M8.77973 19.4033C8.77973 20.9134 10.0039 22.1377 11.514 22.1377C13.0241 22.1377 14.2484 20.9134 14.2484 19.4033C14.2484 17.8932 13.0241 16.6691 11.514 16.6691C10.0039 16.6691 8.77973 17.8932 8.77973 19.4033Z" fill="black"/>
<path fill-rule="evenodd" clip-rule="evenodd" d="M19.9918 18.6372C17.8776 20.7513 17.8776 24.179 19.9918 26.2932C22.1061 24.179 22.1061 20.7513 19.9918 18.6372Z" fill="black"/>
<path fill-rule="evenodd" clip-rule="evenodd" d="M31.2144 19.4033C31.2144 20.9134 29.9903 22.1377 28.4801 22.1377C26.97 22.1377 25.7457 20.9134 25.7457 19.4033C25.7457 17.8932 26.97 16.6691 28.4801 16.6691C29.9903 16.6691 31.2144 17.8932 31.2144 19.4033Z" fill="black"/>
</svg>
