<svg width="42" height="40" viewBox="0 0 42 40" fill="none" xmlns="http://www.w3.org/2000/svg">
<path d="M32.1415 0.538261C32.1415 0.538261 27.3652 0 21.0189 0C14.6726 0 9.85854 0.538261 9.85854 0.538261C9.85854 0.538261 2.15676 10.7834 0 17.975C8.66447 32.2211 20.6143 39.9006 21 40C21.3768 39.9014 32.6734 32.3492 42 17.975C39.8433 10.7834 32.1415 0.538261 32.1415 0.538261ZM24.2499 29.3736H17.7502L16.5707 26.443L20.9996 25.7896L25.4293 26.443L24.2499 29.3736ZM28.0852 25.5531C28.0716 25.5982 28.0243 25.6261 27.9756 25.618L22.4306 24.6977L21.6713 22.5966L24.5385 20.5247C24.6088 20.4699 24.5681 20.362 24.4772 20.362H17.5338C17.443 20.362 17.4023 20.4699 17.4726 20.5247L20.3397 22.5966L19.5807 24.6968L14.0421 25.6172C13.9934 25.6253 13.9461 25.5973 13.9325 25.5523L9.46599 10.8694L16.0467 15.1056L15.7804 19.7848C15.7742 19.8899 15.9301 19.9203 15.968 19.8209L18.6793 12.5267L9.41294 9.52391L14.1222 7.03463L21.0055 9.23795L27.8322 7.03463L32.5871 9.52472L23.3318 12.5267L26.043 19.8209C26.0809 19.9203 26.2369 19.8899 26.2306 19.7848L25.9644 15.1056L32.5452 10.8694L28.0852 25.5531Z" fill="#D73320"/>
</svg>
